<svg width="20" height="20" viewBox="0 0 20 20" fill="none" xmlns="http://www.w3.org/2000/svg">
  <path id="Icon"
    d="M11.4546 2.19382L17.728 6.27149C17.9496 6.41558 18.0605 6.48762 18.1408 6.58372C18.2118 6.66879 18.2652 6.76718 18.2978 6.87314C18.3346 6.99284 18.3346 7.12503 18.3346 7.38942V13.4992C18.3346 14.8993 18.3346 15.5994 18.0622 16.1341C17.8225 16.6046 17.44 16.987 16.9696 17.2267C16.4348 17.4992 15.7348 17.4992 14.3346 17.4992H5.66797C4.26784 17.4992 3.56777 17.4992 3.03299 17.2267C2.56259 16.987 2.18014 16.6046 1.94045 16.1341C1.66797 15.5994 1.66797 14.8993 1.66797 13.4992V7.38942C1.66797 7.12503 1.66797 6.99284 1.70478 6.87314C1.73736 6.76718 1.79076 6.66879 1.86184 6.58372C1.94214 6.48762 2.05298 6.41558 2.27465 6.27149L8.548 2.19382M11.4546 2.19382C10.9286 1.85189 10.6656 1.68093 10.3822 1.61441C10.1317 1.55561 9.87095 1.55561 9.62045 1.61441C9.33705 1.68093 9.07404 1.85189 8.548 2.19382M11.4546 2.19382L17.4747 6.10687C17.7613 6.29317 17.9046 6.38631 17.9542 6.50444C17.9976 6.60766 17.9976 6.72401 17.9542 6.82724C17.9046 6.94536 17.7613 7.03851 17.4747 7.2248L11.4546 11.1379C10.9286 11.4798 10.6655 11.6507 10.3822 11.7173C10.1317 11.7761 9.87095 11.7761 9.62045 11.7173C9.33705 11.6507 9.07404 11.4798 8.548 11.1379L2.52791 7.2248C2.24131 7.03851 2.09801 6.94536 2.04837 6.82724C2.005 6.72401 2.005 6.60766 2.04837 6.50444C2.09801 6.38631 2.24131 6.29317 2.52791 6.10687L8.548 2.19382"
    stroke="white" fill="" stroke-width="1.5" stroke-linecap="round" stroke-linejoin="round"></path>
</svg>